<svg width="44" height="44" viewBox="0 0 44 44" fill="none" xmlns="http://www.w3.org/2000/svg">
<path d="M37.8125 4.8125H6.1875C5.42695 4.8125 4.8125 5.42695 4.8125 6.1875V37.8125C4.8125 38.573 5.42695 39.1875 6.1875 39.1875H37.8125C38.573 39.1875 39.1875 38.573 39.1875 37.8125V6.1875C39.1875 5.42695 38.573 4.8125 37.8125 4.8125ZM36.4375 36.4375H28.527V25.8758H32.9957L33.666 20.6895H28.527V17.3766C28.527 15.8727 28.9438 14.85 31.0965 14.85H33.8422V10.2094C33.3652 10.1449 31.7367 10.0031 29.8375 10.0031C25.8758 10.0031 23.1645 12.4223 23.1645 16.8609V20.6852H18.6871V25.8715H23.1688V36.4375H7.5625V7.5625H36.4375V36.4375Z" fill="white"/>
</svg>
