<svg width="44" height="44" viewBox="0 0 44 44" fill="none" xmlns="http://www.w3.org/2000/svg">
<path d="M29.3658 3.66797H14.5708C11.6799 3.67137 8.90843 4.8214 6.86444 6.86573C4.82044 8.91007 3.67088 11.6817 3.66797 14.5726L3.66797 29.3676C3.67137 32.2585 4.8214 35.03 6.86573 37.074C8.91007 39.118 11.6817 40.2676 14.5726 40.2705H29.3676C32.2585 40.2671 35.03 39.117 37.074 37.0727C39.118 35.0284 40.2676 32.2567 40.2705 29.3658V14.5708C40.2671 11.6799 39.117 8.90843 37.0727 6.86444C35.0284 4.82044 32.2567 3.67088 29.3658 3.66797V3.66797ZM36.5891 29.3658C36.5891 30.3144 36.4023 31.2537 36.0393 32.13C35.6763 33.0064 35.1442 33.8027 34.4735 34.4735C33.8027 35.1442 33.0064 35.6763 32.13 36.0393C31.2537 36.4023 30.3144 36.5891 29.3658 36.5891H14.5708C12.6554 36.5886 10.8186 35.8274 9.46432 34.4728C8.11008 33.1182 7.3493 31.2812 7.3493 29.3658V14.5708C7.34979 12.6554 8.11103 10.8186 9.46561 9.46432C10.8202 8.11008 12.6572 7.3493 14.5726 7.3493H29.3676C31.2831 7.34979 33.1199 8.11103 34.4741 9.46561C35.8284 10.8202 36.5891 12.6572 36.5891 14.5726V29.3676V29.3658Z" fill="white"/>
<path d="M21.9676 12.5039C19.4585 12.5078 17.0534 13.5063 15.2794 15.2807C13.5054 17.055 12.5073 19.4604 12.5039 21.9694C12.5068 24.4791 13.5049 26.8852 15.2794 28.66C17.0538 30.4347 19.4597 31.4333 21.9694 31.4367C24.4794 31.4338 26.8858 30.4354 28.6606 28.6606C30.4354 26.8858 31.4338 24.4794 31.4367 21.9694C31.4329 19.4597 30.4338 17.054 28.6587 15.2799C26.8835 13.5058 24.4773 12.5082 21.9676 12.5057V12.5039ZM21.9676 27.7554C20.4335 27.7554 18.9623 27.146 17.8775 26.0613C16.7928 24.9765 16.1834 23.5053 16.1834 21.9712C16.1834 20.4372 16.7928 18.966 17.8775 17.8812C18.9623 16.7965 20.4335 16.1871 21.9676 16.1871C23.5016 16.1871 24.9729 16.7965 26.0576 17.8812C27.1423 18.966 27.7517 20.4372 27.7517 21.9712C27.7517 23.5053 27.1423 24.9765 26.0576 26.0613C24.9729 27.146 23.5016 27.7554 21.9676 27.7554Z" fill="white"/>
<path d="M31.4553 14.8404C32.7078 14.8404 33.7232 13.825 33.7232 12.5725C33.7232 11.32 32.7078 10.3047 31.4553 10.3047C30.2028 10.3047 29.1875 11.32 29.1875 12.5725C29.1875 13.825 30.2028 14.8404 31.4553 14.8404Z" fill="white"/>
</svg>
